<svg width="170" height="26" viewBox="0 0 170 26" fill="none" xmlns="http://www.w3.org/2000/svg">
<rect width="170" height="26" fill="white"/>
<path d="M4.78786 22.31C5.23253 22.31 5.55453 22.2027 5.75386 21.988C5.95319 21.758 6.06819 21.4667 6.09886 21.114C6.14486 20.7613 6.16786 20.2247 6.16786 19.504V8.625C6.16786 8.04233 6.19086 7.544 6.23686 7.13L4.60386 7.222V6.256C5.52386 6.256 6.17553 6.20233 6.55886 6.095C6.95753 5.98767 7.26419 5.83433 7.47886 5.635H8.14586V12.65C8.68253 12.2053 9.28819 11.845 9.96286 11.569C10.6375 11.2777 11.2892 11.132 11.9179 11.132C13.2365 11.132 14.1949 11.546 14.7929 12.374C15.3909 13.202 15.6975 14.5053 15.7129 16.284L15.7359 20.562C15.7359 21.252 15.7052 21.7733 15.6439 22.126L17.0929 22.057V23H12.4009V22.31C12.8455 22.31 13.1599 22.2027 13.3439 21.988C13.5432 21.758 13.6582 21.4743 13.6889 21.137C13.7349 20.7843 13.7579 20.24 13.7579 19.504V16.284C13.7579 14.9653 13.5509 13.984 13.1369 13.34C12.7229 12.6807 12.0712 12.351 11.1819 12.351C10.6145 12.351 10.0472 12.489 9.47986 12.765C8.92786 13.0257 8.48319 13.363 8.14586 13.777V20.562C8.14586 21.16 8.10753 21.6813 8.03086 22.126L9.47986 22.057V23H4.78786V22.31ZM23.6394 23.368C22.3361 23.368 21.3777 22.9923 20.7644 22.241C20.1664 21.4897 19.8674 20.194 19.8674 18.354V14.26C19.8674 13.616 19.8981 13.1177 19.9594 12.765L18.3724 12.834V11.891H19.0854C19.6834 11.891 20.1357 11.8373 20.4424 11.73C20.7491 11.6227 21.0097 11.4693 21.2244 11.27H21.8914V18.285C21.8914 19.6343 22.0754 20.6233 22.4434 21.252C22.8267 21.8807 23.4554 22.195 24.3294 22.195C24.8967 22.195 25.4487 22.0263 25.9854 21.689C26.5374 21.3517 26.9821 20.93 27.3194 20.424V14.513C27.3194 13.7923 27.3577 13.2097 27.4344 12.765L25.7784 12.834V11.891H26.4914C27.0894 11.891 27.5417 11.8373 27.8484 11.73C28.1551 11.6227 28.4157 11.4693 28.6304 11.27H29.2974L29.2744 19.964C29.2744 20.8533 29.2437 21.574 29.1824 22.126L30.8384 22.034V23H27.5494C27.4727 22.5247 27.4191 22.0647 27.3884 21.62C26.8824 22.126 26.2921 22.5477 25.6174 22.885C24.9427 23.207 24.2834 23.368 23.6394 23.368ZM37.225 23.368C36.5044 23.368 35.845 23.2683 35.247 23.069C34.649 22.885 34.1354 22.6473 33.706 22.356L33.798 23.161H32.832L32.694 19.205H33.407C33.4377 19.8337 33.6064 20.3933 33.913 20.884C34.235 21.3747 34.649 21.7657 35.155 22.057C35.6764 22.333 36.2284 22.471 36.811 22.471C37.4704 22.471 38.053 22.3177 38.559 22.011C39.0804 21.689 39.341 21.2367 39.341 20.654C39.341 20.2247 39.2107 19.8643 38.95 19.573C38.7047 19.2817 38.3904 19.044 38.007 18.86C37.639 18.6607 37.1177 18.4307 36.443 18.17C35.6304 17.8633 34.9787 17.5797 34.488 17.319C33.9974 17.043 33.5757 16.675 33.223 16.215C32.8704 15.755 32.694 15.1723 32.694 14.467C32.694 13.961 32.8167 13.455 33.062 12.949C33.3074 12.443 33.7214 12.0137 34.304 11.661C34.8867 11.3083 35.661 11.132 36.627 11.132C37.1024 11.132 37.5854 11.2087 38.076 11.362C38.582 11.5153 39.0497 11.7683 39.479 12.121L39.433 11.247H40.399V15.272H39.663C39.617 14.3827 39.341 13.616 38.835 12.972C38.3444 12.3127 37.6467 11.983 36.742 11.983C36.052 11.983 35.5 12.1593 35.086 12.512C34.6874 12.8493 34.488 13.2557 34.488 13.731C34.488 14.1757 34.6184 14.5513 34.879 14.858C35.155 15.1647 35.4924 15.4253 35.891 15.64C36.2897 15.8547 36.8264 16.0923 37.501 16.353C38.2984 16.675 38.9424 16.974 39.433 17.25C39.9237 17.526 40.3377 17.894 40.675 18.354C41.0277 18.7987 41.204 19.343 41.204 19.987C41.204 20.723 41.0124 21.344 40.629 21.85C40.261 22.356 39.7704 22.7393 39.157 23C38.559 23.2453 37.915 23.368 37.225 23.368ZM42.9265 22.31C43.3712 22.31 43.6932 22.2027 43.8925 21.988C44.0919 21.758 44.2069 21.4667 44.2375 21.114C44.2835 20.7613 44.3065 20.2247 44.3065 19.504V8.625C44.3065 8.04233 44.3295 7.544 44.3755 7.13L42.7425 7.222V6.256C43.6625 6.256 44.3142 6.20233 44.6975 6.095C45.0962 5.98767 45.4029 5.83433 45.6175 5.635H46.2845V12.65C46.8212 12.2053 47.4269 11.845 48.1015 11.569C48.7762 11.2777 49.4279 11.132 50.0565 11.132C51.3752 11.132 52.3335 11.546 52.9315 12.374C53.5295 13.202 53.8362 14.5053 53.8515 16.284L53.8745 20.562C53.8745 21.252 53.8439 21.7733 53.7825 22.126L55.2315 22.057V23H50.5395V22.31C50.9842 22.31 51.2985 22.2027 51.4825 21.988C51.6819 21.758 51.7969 21.4743 51.8275 21.137C51.8735 20.7843 51.8965 20.24 51.8965 19.504V16.284C51.8965 14.9653 51.6895 13.984 51.2755 13.34C50.8615 12.6807 50.2099 12.351 49.3205 12.351C48.7532 12.351 48.1859 12.489 47.6185 12.765C47.0665 13.0257 46.6219 13.363 46.2845 13.777V20.562C46.2845 21.16 46.2462 21.6813 46.1695 22.126L47.6185 22.057V23H42.9265V22.31Z" fill="#1C3ED3"/>
<path d="M62.4911 23.368C61.4331 23.368 60.4748 23.1227 59.6161 22.632C58.7728 22.126 58.1058 21.413 57.6151 20.493C57.1244 19.5577 56.8791 18.4843 56.8791 17.273C56.8791 16.1997 57.1244 15.1953 57.6151 14.26C58.1058 13.3093 58.7881 12.5503 59.6621 11.983C60.5514 11.4157 61.5558 11.132 62.6751 11.132C63.5491 11.132 64.3388 11.3237 65.0441 11.707C65.7494 12.0903 66.3091 12.6653 66.7231 13.432C67.1371 14.1833 67.3441 15.111 67.3441 16.215L59.2481 16.353C59.2328 18.193 59.5318 19.6267 60.1451 20.654C60.7738 21.6813 61.7398 22.195 63.0431 22.195C63.7484 22.195 64.4691 22.011 65.2051 21.643C65.9564 21.275 66.5314 20.8227 66.9301 20.286L67.4821 20.746C66.8994 21.6353 66.1404 22.2947 65.2051 22.724C64.2851 23.1533 63.3804 23.368 62.4911 23.368ZM65.1821 15.387C65.1821 14.467 64.9751 13.6773 64.5611 13.018C64.1471 12.3587 63.5261 12.029 62.6981 12.029C60.7968 12.029 59.6698 13.1483 59.3171 15.387H65.1821ZM70.3596 15.571C69.7463 14.1603 69.4243 13.0947 69.3936 12.374L68.4046 12.443V11.5H72.6366V12.19C71.9619 12.19 71.6246 12.4737 71.6246 13.041C71.6246 13.455 71.7856 14.0223 72.1076 14.743L73.8786 18.791C74.0779 19.2663 74.3079 19.8337 74.5686 20.493H74.5916C74.6376 20.3397 74.6989 20.171 74.7756 19.987L75.1206 18.998L76.9606 13.961C77.1139 13.5163 77.3439 12.9873 77.6506 12.374L76.1786 12.443V11.5H79.8126V12.19C79.4906 12.19 79.2146 12.305 78.9846 12.535C78.7546 12.7497 78.5399 13.0563 78.3406 13.455C78.1566 13.8537 77.9036 14.467 77.5816 15.295L74.5686 23.069H73.6486L70.3596 15.571ZM83.8863 23.368C82.767 23.368 81.9083 23.115 81.3103 22.609C80.7276 22.103 80.4363 21.4437 80.4363 20.631C80.4363 19.7417 80.789 18.9903 81.4943 18.377C82.215 17.7637 83.112 17.3113 84.1853 17.02C85.274 16.7133 86.3626 16.5677 87.4513 16.583V15.157C87.4513 14.1603 87.3056 13.386 87.0143 12.834C86.723 12.2667 86.102 11.983 85.1513 11.983C84.676 11.983 84.2236 12.0827 83.7943 12.282C83.365 12.4813 83.0506 12.7803 82.8513 13.179C83.0506 13.3937 83.1503 13.685 83.1503 14.053C83.1503 14.283 83.066 14.5053 82.8973 14.72C82.7286 14.9193 82.4833 15.019 82.1613 15.019C81.8393 15.019 81.5863 14.9193 81.4023 14.72C81.2183 14.5053 81.1263 14.2293 81.1263 13.892C81.1263 13.386 81.318 12.926 81.7013 12.512C82.1 12.0827 82.6443 11.7453 83.3343 11.5C84.0396 11.2547 84.8216 11.132 85.6803 11.132C86.9683 11.132 87.919 11.477 88.5323 12.167C89.1456 12.8417 89.4446 13.915 89.4293 15.387L89.4063 20.562C89.4063 21.0527 89.3756 21.574 89.3143 22.126L90.9473 22.034V23H87.6583C87.6123 22.77 87.5586 22.333 87.4973 21.689C86.378 22.8083 85.1743 23.368 83.8863 23.368ZM84.4153 22.057C84.998 22.057 85.527 21.9497 86.0023 21.735C86.4776 21.505 86.9606 21.16 87.4513 20.7C87.436 20.47 87.4283 20.079 87.4283 19.527L87.4513 17.365C86.194 17.411 85.0746 17.6717 84.0933 18.147C83.112 18.607 82.6213 19.32 82.6213 20.286C82.6213 20.8533 82.79 21.2903 83.1273 21.597C83.4646 21.9037 83.894 22.057 84.4153 22.057ZM92.2957 22.31C92.7403 22.31 93.0547 22.2027 93.2387 21.988C93.438 21.758 93.553 21.4743 93.5837 21.137C93.6297 20.7843 93.6527 20.24 93.6527 19.504V8.625C93.6527 8.04233 93.6757 7.544 93.7217 7.13L92.0887 7.222V6.256C93.0087 6.256 93.6603 6.20233 94.0437 6.095C94.4423 5.98767 94.749 5.83433 94.9637 5.635H95.6307L95.6537 20.562C95.6537 21.16 95.6153 21.6813 95.5387 22.126L96.9877 22.057V23H92.2957V22.31ZM103.645 23.368C102.342 23.368 101.384 22.9923 100.77 22.241C100.172 21.4897 99.8733 20.194 99.8733 18.354V14.26C99.8733 13.616 99.9039 13.1177 99.9653 12.765L98.3783 12.834V11.891H99.0913C99.6893 11.891 100.142 11.8373 100.448 11.73C100.755 11.6227 101.016 11.4693 101.23 11.27H101.897V18.285C101.897 19.6343 102.081 20.6233 102.449 21.252C102.833 21.8807 103.461 22.195 104.335 22.195C104.903 22.195 105.455 22.0263 105.991 21.689C106.543 21.3517 106.988 20.93 107.325 20.424V14.513C107.325 13.7923 107.364 13.2097 107.44 12.765L105.784 12.834V11.891H106.497C107.095 11.891 107.548 11.8373 107.854 11.73C108.161 11.6227 108.422 11.4693 108.636 11.27H109.303L109.28 19.964C109.28 20.8533 109.25 21.574 109.188 22.126L110.844 22.034V23H107.555C107.479 22.5247 107.425 22.0647 107.394 21.62C106.888 22.126 106.298 22.5477 105.623 22.885C104.949 23.207 104.289 23.368 103.645 23.368ZM115.736 23.368C114.617 23.368 113.758 23.115 113.16 22.609C112.577 22.103 112.286 21.4437 112.286 20.631C112.286 19.7417 112.639 18.9903 113.344 18.377C114.065 17.7637 114.962 17.3113 116.035 17.02C117.124 16.7133 118.212 16.5677 119.301 16.583V15.157C119.301 14.1603 119.155 13.386 118.864 12.834C118.573 12.2667 117.952 11.983 117.001 11.983C116.526 11.983 116.073 12.0827 115.644 12.282C115.215 12.4813 114.9 12.7803 114.701 13.179C114.9 13.3937 115 13.685 115 14.053C115 14.283 114.916 14.5053 114.747 14.72C114.578 14.9193 114.333 15.019 114.011 15.019C113.689 15.019 113.436 14.9193 113.252 14.72C113.068 14.5053 112.976 14.2293 112.976 13.892C112.976 13.386 113.168 12.926 113.551 12.512C113.95 12.0827 114.494 11.7453 115.184 11.5C115.889 11.2547 116.671 11.132 117.53 11.132C118.818 11.132 119.769 11.477 120.382 12.167C120.995 12.8417 121.294 13.915 121.279 15.387L121.256 20.562C121.256 21.0527 121.225 21.574 121.164 22.126L122.797 22.034V23H119.508C119.462 22.77 119.408 22.333 119.347 21.689C118.228 22.8083 117.024 23.368 115.736 23.368ZM116.265 22.057C116.848 22.057 117.377 21.9497 117.852 21.735C118.327 21.505 118.81 21.16 119.301 20.7C119.286 20.47 119.278 20.079 119.278 19.527L119.301 17.365C118.044 17.411 116.924 17.6717 115.943 18.147C114.962 18.607 114.471 19.32 114.471 20.286C114.471 20.8533 114.64 21.2903 114.977 21.597C115.314 21.9037 115.744 22.057 116.265 22.057ZM128.542 23.368C126.441 23.368 125.399 21.9573 125.414 19.136L125.46 12.466L123.689 12.489V11.5C124.425 11.4847 125.046 11.155 125.552 10.511C126.073 9.85167 126.457 9.108 126.702 8.28H127.484V11.5H131.348V12.397L127.484 12.443C127.469 14.789 127.453 16.4143 127.438 17.319C127.438 18.2237 127.438 18.7297 127.438 18.837C127.438 19.9257 127.568 20.7383 127.829 21.275C128.09 21.7963 128.542 22.057 129.186 22.057C129.585 22.057 129.976 21.9343 130.359 21.689C130.758 21.4437 131.103 21.1063 131.394 20.677L132.015 21.183C131.417 22.0723 130.827 22.6627 130.244 22.954C129.661 23.23 129.094 23.368 128.542 23.368ZM135.39 8.993C135.068 8.993 134.784 8.86267 134.539 8.602C134.293 8.326 134.171 8.004 134.171 7.636C134.171 7.268 134.293 6.946 134.539 6.67C134.799 6.394 135.091 6.256 135.413 6.256C135.765 6.256 136.057 6.394 136.287 6.67C136.532 6.93067 136.655 7.25267 136.655 7.636C136.655 8.004 136.524 8.326 136.264 8.602C136.018 8.86267 135.727 8.993 135.39 8.993ZM133.113 22.31C133.557 22.31 133.872 22.2027 134.056 21.988C134.255 21.758 134.37 21.4743 134.401 21.137C134.447 20.7843 134.47 20.24 134.47 19.504V14.26C134.47 13.8153 134.5 13.317 134.562 12.765L132.929 12.857V11.891C133.833 11.891 134.477 11.8373 134.861 11.73C135.259 11.6227 135.566 11.4693 135.781 11.27H136.448V20.562C136.448 21.252 136.417 21.7733 136.356 22.126L137.805 22.057V23H133.113V22.31ZM145.285 23.368C144.227 23.368 143.254 23.1227 142.364 22.632C141.49 22.126 140.793 21.4283 140.271 20.539C139.765 19.6497 139.512 18.6453 139.512 17.526C139.512 16.33 139.765 15.249 140.271 14.283C140.777 13.3017 141.467 12.535 142.341 11.983C143.231 11.4157 144.212 11.132 145.285 11.132C146.343 11.132 147.317 11.3927 148.206 11.914C149.096 12.42 149.793 13.1177 150.299 14.007C150.821 14.8963 151.081 15.8853 151.081 16.974C151.081 18.1393 150.821 19.2127 150.299 20.194C149.793 21.1753 149.096 21.9497 148.206 22.517C147.332 23.0843 146.359 23.368 145.285 23.368ZM145.469 22.448C146.589 22.448 147.409 21.988 147.93 21.068C148.467 20.148 148.735 19.0057 148.735 17.641C148.735 16.0923 148.444 14.766 147.861 13.662C147.294 12.558 146.435 12.006 145.285 12.006C144.151 12.006 143.292 12.4737 142.709 13.409C142.142 14.3443 141.858 15.4943 141.858 16.859C141.858 17.8403 141.989 18.7603 142.249 19.619C142.525 20.4623 142.932 21.1447 143.468 21.666C144.02 22.1873 144.687 22.448 145.469 22.448ZM153.035 22.31C153.48 22.31 153.794 22.2027 153.978 21.988C154.178 21.758 154.293 21.482 154.323 21.16C154.354 20.8227 154.377 20.2707 154.392 19.504L154.415 14.26C154.415 13.616 154.446 13.1177 154.507 12.765L152.874 12.857V11.891C153.779 11.891 154.4 11.845 154.737 11.753C155.075 11.6457 155.358 11.4847 155.588 11.27H156.255C156.286 11.5613 156.317 12.029 156.347 12.673C156.869 12.213 157.459 11.845 158.118 11.569C158.793 11.2777 159.452 11.132 160.096 11.132C161.43 11.132 162.404 11.5537 163.017 12.397C163.631 13.225 163.937 14.5207 163.937 16.284V20.562C163.937 21.252 163.907 21.7733 163.845 22.126L165.294 22.057V23H160.602V22.31C161.047 22.31 161.361 22.2027 161.545 21.988C161.745 21.758 161.86 21.4743 161.89 21.137C161.936 20.7843 161.959 20.24 161.959 19.504V16.284C161.944 14.9653 161.729 13.9763 161.315 13.317C160.901 12.6423 160.25 12.305 159.36 12.305C158.808 12.305 158.256 12.443 157.704 12.719C157.168 12.995 156.723 13.3553 156.37 13.8C156.386 13.9687 156.393 14.2677 156.393 14.697L156.37 20.562C156.37 21.252 156.34 21.7733 156.278 22.126L157.727 22.057V23H153.035V22.31Z" fill="#333333"/>
</svg>
