<svg width="54" height="54" viewBox="0 0 54 54" fill="none" xmlns="http://www.w3.org/2000/svg">
<rect width="54" height="54" fill="white"/>
<rect x="2.5" y="2.5" width="49" height="49" stroke="#1C3ED3" stroke-width="5"/>
<path d="M7.69275 41.92C8.38875 41.92 8.89275 41.752 9.20475 41.416C9.51675 41.056 9.69675 40.6 9.74475 40.048C9.81675 39.496 9.85275 38.656 9.85275 37.528V20.5C9.85275 19.588 9.88875 18.808 9.96075 18.16L7.40475 18.304V16.792C8.84475 16.792 9.86475 16.708 10.4648 16.54C11.0888 16.372 11.5688 16.132 11.9048 15.82H12.9488V26.8C13.7888 26.104 14.7368 25.54 15.7928 25.108C16.8488 24.652 17.8688 24.424 18.8528 24.424C20.9168 24.424 22.4168 25.072 23.3528 26.368C24.2888 27.664 24.7688 29.704 24.7928 32.488L24.8288 39.184C24.8288 40.264 24.7808 41.08 24.6848 41.632L26.9528 41.524V43H19.6088V41.92C20.3048 41.92 20.7968 41.752 21.0848 41.416C21.3968 41.056 21.5768 40.612 21.6248 40.084C21.6968 39.532 21.7328 38.68 21.7328 37.528V32.488C21.7328 30.424 21.4088 28.888 20.7608 27.88C20.1128 26.848 19.0928 26.332 17.7008 26.332C16.8128 26.332 15.9248 26.548 15.0368 26.98C14.1728 27.388 13.4768 27.916 12.9488 28.564V39.184C12.9488 40.12 12.8888 40.936 12.7688 41.632L15.0368 41.524V43H7.69275V41.92Z" fill="#1C3ED3"/>
<path d="M38.3155 43.576C36.6595 43.576 35.1595 43.192 33.8155 42.424C32.4955 41.632 31.4515 40.516 30.6835 39.076C29.9155 37.612 29.5315 35.932 29.5315 34.036C29.5315 32.356 29.9155 30.784 30.6835 29.32C31.4515 27.832 32.5195 26.644 33.8875 25.756C35.2795 24.868 36.8515 24.424 38.6035 24.424C39.9715 24.424 41.2075 24.724 42.3115 25.324C43.4155 25.924 44.2915 26.824 44.9395 28.024C45.5875 29.2 45.9115 30.652 45.9115 32.38L33.2395 32.596C33.2155 35.476 33.6835 37.72 34.6435 39.328C35.6275 40.936 37.1395 41.74 39.1795 41.74C40.2835 41.74 41.4115 41.452 42.5635 40.876C43.7395 40.3 44.6395 39.592 45.2635 38.752L46.1275 39.472C45.2155 40.864 44.0275 41.896 42.5635 42.568C41.1235 43.24 39.7075 43.576 38.3155 43.576ZM42.5275 31.084C42.5275 29.644 42.2035 28.408 41.5555 27.376C40.9075 26.344 39.9355 25.828 38.6395 25.828C35.6635 25.828 33.8995 27.58 33.3475 31.084H42.5275Z" fill="#333333"/>
</svg>
